<svg width="68" height="68" viewBox="0 0 68 68" fill="none" xmlns="http://www.w3.org/2000/svg">
<circle cx="34" cy="34" r="34" fill="#121936"/>
<path fill-rule="evenodd" clip-rule="evenodd" d="M45.5439 41.5044L39.0001 35.5109L45.5439 29.5173L44.6516 28.5637L35.1334 37.2817L25.6152 28.5637L24.7228 29.5173L31.2666 35.5109L24.7228 41.5044L25.6152 42.458L32.2333 36.3963L35.1334 39.0525L38.0334 36.3963L44.6516 42.458L45.5439 41.5044ZM23.537 26.0664C22.3145 26.0664 21.3235 27.1224 21.3235 28.4205V42.6012C21.3235 43.9013 22.3065 44.9553 23.537 44.9553H46.7297C47.9522 44.9553 48.9432 43.8993 48.9432 42.6012V28.4205C48.9432 27.1204 47.9602 26.0664 46.7297 26.0664H23.537Z" fill="#FFD74B"/>
</svg>
