<svg width="45" height="45" viewBox="0 0 45 45" fill="none" xmlns="http://www.w3.org/2000/svg">
<circle cx="22.5" cy="22.5" r="22.5" fill="#121936"/>
<path fill-rule="evenodd" clip-rule="evenodd" d="M22.4999 15.0859C19.7035 15.0859 16.9003 15.5586 15.8832 16.5007C15.0393 17.2823 14.758 18.6631 14.6632 19.5373C14.6632 19.5373 14.6501 19.6237 14.6501 19.6609C14.6501 20.0037 14.9444 20.2787 15.3043 20.2787C15.3468 20.2787 16.92 20.1582 17.8685 20.084C17.8913 20.0809 17.9143 20.0779 17.9372 20.0717C18.2904 20.0625 18.575 19.7906 18.575 19.4539L18.5782 18.2368C18.5782 17.8599 18.9021 17.5572 19.3012 17.5572H25.6987C26.0978 17.5572 26.4218 17.8599 26.4218 18.2368L26.425 19.4539C26.425 19.7906 26.7095 20.0625 27.0628 20.0717C27.0854 20.0779 27.1085 20.0809 27.1315 20.084C28.0801 20.1581 29.6533 20.2787 29.6957 20.2787C30.0553 20.2787 30.3499 20.0037 30.3499 19.6609C30.3499 19.6237 30.3368 19.5373 30.3368 19.5373C30.2419 18.6631 29.9609 17.2823 29.117 16.5007C28.0996 15.5586 25.2964 15.0859 22.4999 15.0859ZM22.4999 23.1175C21.7771 23.1175 21.1916 23.6704 21.1916 24.3531C21.1916 25.0358 21.7771 25.5887 22.4999 25.5887C23.2228 25.5887 23.8082 25.0358 23.8082 24.3531C23.8082 23.6704 23.2228 23.1175 22.4999 23.1175ZM21.5187 20.3373V19.5651C21.5187 19.1388 21.1524 18.7928 20.7011 18.7928C20.2498 18.7928 19.8834 19.1388 19.8834 19.5651V20.3373L15.4709 24.7887C15.1669 25.0698 14.9771 25.462 14.9771 25.8946V27.1333C14.9771 27.816 15.5626 28.3689 16.2854 28.3689H16.6125V29.1412C16.6125 29.5675 16.979 29.9134 17.4302 29.9134C17.8815 29.9134 18.2479 29.5675 18.2479 29.1412V28.3689H26.752V29.1412C26.752 29.5675 27.1182 29.9134 27.5697 29.9134C28.021 29.9134 28.3873 29.5675 28.3873 29.1412V28.3689H28.7144C29.4373 28.3689 30.0227 27.816 30.0227 27.1333V25.8946C30.0227 25.462 29.833 25.0698 29.5289 24.7887L25.1166 20.3373V19.5651C25.1166 19.1388 24.7502 18.7928 24.2989 18.7928C23.8476 18.7928 23.4812 19.1388 23.4812 19.5651V20.3373H21.5187ZM22.4999 21.8819C23.9456 21.8819 25.1166 22.9878 25.1166 24.3531C25.1166 25.7185 23.9457 26.8244 22.4999 26.8244C21.0543 26.8244 19.8834 25.7185 19.8834 24.3531C19.8834 22.9877 21.0543 21.8819 22.4999 21.8819Z" fill="#FFD74B"/>
</svg>
