<svg width="90" height="91" viewBox="0 0 90 91" fill="none" xmlns="http://www.w3.org/2000/svg">
<circle cx="45" cy="45" r="45" fill="#121936"/>
<path fill-rule="evenodd" clip-rule="evenodd" d="M44.9999 31.1724C39.407 31.1724 33.8007 32.1177 31.7664 34.0019C30.0787 35.5651 29.5161 38.3266 29.3264 40.0751C29.3264 40.0751 29.3003 40.2479 29.3003 40.3222C29.3003 41.0079 29.8889 41.5578 30.6085 41.5578C30.6936 41.5578 33.84 41.3168 35.737 41.1686C35.7827 41.1623 35.8287 41.1562 35.8743 41.1439C36.5809 41.1255 37.1501 40.5817 37.1501 39.9083L37.1564 37.4741C37.1564 36.7203 37.8043 36.1148 38.6024 36.1148H51.3973C52.1956 36.1148 52.8435 36.7203 52.8435 37.4741L52.8499 39.9083C52.8499 40.5817 53.4191 41.1255 54.1255 41.1439C54.1709 41.1563 54.2169 41.1623 54.2631 41.1686C56.1602 41.3167 59.3066 41.5578 59.3913 41.5578C60.1107 41.5578 60.6997 41.0079 60.6997 40.3222C60.6997 40.2479 60.6736 40.0751 60.6736 40.0751C60.4838 38.3266 59.9218 35.5652 58.234 34.0019C56.1991 32.1177 50.5928 31.1724 44.9999 31.1724ZM44.9999 47.2355C43.5542 47.2355 42.3833 48.3413 42.3833 49.7067C42.3833 51.0721 43.5542 52.1778 44.9999 52.1778C46.4456 52.1778 47.6165 51.0721 47.6165 49.7067C47.6165 48.3413 46.4456 47.2355 44.9999 47.2355ZM43.0375 41.6751V40.1306C43.0375 39.2781 42.3047 38.5861 41.4021 38.5861C40.4995 38.5861 39.7668 39.2782 39.7668 40.1306V41.6751L30.9419 50.5779C30.3338 51.1402 29.9543 51.9245 29.9543 52.7897V55.2671C29.9543 56.6325 31.1253 57.7383 32.5709 57.7383H33.2251V59.2829C33.2251 60.1354 33.9579 60.8273 34.8605 60.8273C35.7631 60.8273 36.4958 60.1354 36.4958 59.2829V57.7383H53.504V59.2829C53.504 60.1354 54.2365 60.8273 55.1394 60.8273C56.042 60.8273 56.7746 60.1354 56.7746 59.2829V57.7383H57.4288C58.8745 57.7383 60.0454 56.6325 60.0454 55.2671V52.7897C60.0454 51.9245 59.6659 51.1401 59.0578 50.5779L50.2332 41.6751V40.1306C50.2332 39.2781 49.5003 38.5861 48.5977 38.5861C47.6951 38.5861 46.9625 39.2782 46.9625 40.1306V41.6751H43.0375ZM44.9999 44.7643C47.8913 44.7643 50.2332 46.976 50.2332 49.7067C50.2332 52.4375 47.8913 54.6494 44.9999 54.6494C42.1085 54.6494 39.7667 52.4375 39.7667 49.7067C39.7667 46.976 42.1085 44.7643 44.9999 44.7643Z" fill="#FFD74B"/>
</svg>
