<svg width="68" height="68" viewBox="0 0 68 68" fill="none" xmlns="http://www.w3.org/2000/svg">
<circle cx="34" cy="34" r="34" fill="#121936"/>
<path fill-rule="evenodd" clip-rule="evenodd" d="M34 22.7969C29.7742 22.7969 25.5383 23.5111 24.0014 24.9348C22.7262 26.1158 22.3011 28.2023 22.1578 29.5234C22.1578 29.5234 22.1381 29.654 22.1381 29.7101C22.1381 30.2282 22.5828 30.6436 23.1265 30.6436C23.1908 30.6436 25.5681 30.4616 27.0014 30.3496C27.0359 30.3448 27.0706 30.3402 27.1051 30.3309C27.6389 30.317 28.069 29.9061 28.069 29.3974L28.0738 27.5582C28.0738 26.9887 28.5633 26.5312 29.1663 26.5312H38.8336C39.4367 26.5312 39.9263 26.9886 39.9263 27.5582L39.9311 29.3974C39.9311 29.9061 40.3611 30.317 40.8949 30.3309C40.9292 30.3403 40.9639 30.3448 40.9988 30.3496C42.4322 30.4615 44.8095 30.6436 44.8735 30.6436C45.417 30.6436 45.8621 30.2282 45.8621 29.7101C45.8621 29.654 45.8423 29.5234 45.8423 29.5234C45.6989 28.2023 45.2743 26.1159 43.9991 24.9348C42.4616 23.5111 38.2257 22.7969 34 22.7969ZM34 34.9335C32.9077 34.9335 32.023 35.769 32.023 36.8006C32.023 37.8322 32.9077 38.6677 34 38.6677C35.0923 38.6677 35.9769 37.8322 35.9769 36.8006C35.9769 35.769 35.0923 34.9335 34 34.9335ZM32.5173 30.7323V29.5653C32.5173 28.9212 31.9636 28.3984 31.2817 28.3984C30.5997 28.3984 30.0461 28.9213 30.0461 29.5653V30.7323L23.3784 37.4588C22.9189 37.8837 22.6322 38.4763 22.6322 39.13V41.0018C22.6322 42.0334 23.5169 42.8689 24.6092 42.8689H25.1035V44.036C25.1035 44.6801 25.6571 45.2028 26.3391 45.2028C27.0211 45.2028 27.5747 44.6801 27.5747 44.036V42.8689H40.4253V44.036C40.4253 44.6801 40.9787 45.2028 41.661 45.2028C42.3429 45.2028 42.8965 44.6801 42.8965 44.036V42.8689H43.3907C44.483 42.8689 45.3677 42.0334 45.3677 41.0018V39.13C45.3677 38.4762 45.081 37.8836 44.6215 37.4588L37.954 30.7323V29.5653C37.954 28.9212 37.4003 28.3984 36.7184 28.3984C36.0364 28.3984 35.4828 28.9213 35.4828 29.5653V30.7323H32.5173ZM34 33.0663C36.1846 33.0663 37.954 34.7374 37.954 36.8006C37.954 38.8638 36.1846 40.5351 34 40.5351C31.8154 40.5351 30.046 38.8639 30.046 36.8006C30.046 34.7374 31.8154 33.0663 34 33.0663Z" fill="#FFD74B"/>
</svg>
